:SAMPLES-PER-SECOND 30
:FULLY-SPECIFIED
:DEGREES
414
root  2.2813 26.5354 20.2625 -59.3204 78.7277 -75.562
RightUpLeg  -64.4346 -0.537948 -2.78647
RightLeg  58.2113 8.37181 11.4797
RightFoot  3.10902 -0.0135579 0.876939
RightToes  -59.2336 -0.387325 -0.396195
Spine  9.88424 -6.01773 6.03336
Spine1  19.5551 -11.6793 5.05752
HEad  16.0922 27.8971 -17.1913
LeftShoulder1  0 -2.42657e-020 -4.95415e-022
LeftArm  -24.062 7.49564 -82.9035
LeftForeArm  -155.519 -24.0837 -4.09084
LeftHand  12.0002 -26.587 -48.3446
RightShoulder  0 2.42657e-020 1.07489e-018
RightArm  -20.3132 12.104 70.1537
RightForeArm  69.8982 79.6507 77.2135
RightHand  1.55609 21.0169 8.74716
LeftUpLeg  4.08944 0.311078 9.80694
LeftLeg  70.5537 2.07903 4.83869
LeftFoot  0.0494765 -3.74129e-005 0.086647
LeftToes  -8.39175 1.18758e-006 1.19596e-007
415
root  4.66921 26.3972 20.0796 -71.2781 77.7341 -87.0565
RightUpLeg  -61.2612 -3.36036 -1.14846
RightLeg  62.7681 7.67394 12.4783
RightFoot  -3.24138 -0.0290212 -0.648267
RightToes  -60.4845 -0.399124 -0.399446
Spine  9.9851 -4.2289 6.31174
Spine1  19.7717 -8.25042 6.08554
HEad  18.0749 26.1661 -18.3148
LeftShoulder1  0 -2.42657e-020 -4.95415e-022
LeftArm  -21.6481 6.05369 -87.2751
LeftForeArm  -160.226 -24.3236 -4.1407
LeftHand  12.7018 -27.1722 -49.8373
RightShoulder  0 2.42657e-020 1.07489e-018
RightArm  -15.0596 15.1259 74.6372
RightForeArm  94.0665 79.8817 91.8164
RightHand  0.793868 21.691 4.5133
LeftUpLeg  -8.80647 -3.19549 10.4741
LeftLeg  88.2193 0.688376 7.08936
LeftFoot  -8.3529 -0.06959 -0.952986
LeftToes  -0.458115 1.18758e-006 1.19596e-007
416
root  6.69398 26.7725 19.5157 -81.9648 77.4015 -97.3255
RightUpLeg  -55.8482 -5.85352 -1.50627
RightLeg  62.344 7.64982 12.241
RightFoot  -7.1991 -0.120873 -1.54388
RightToes  -60.9558 -0.403587 -0.400605
Spine  10.0542 -1.5652 6.11923
Spine1  19.9939 -3.02136 6.66026
HEad  18.5005 22.7158 -18.1136
LeftShoulder1  0 -2.42657e-020 -4.95415e-022
LeftArm  -19.4828 5.9267 -91.3792
LeftForeArm  -163.042 -25.8326 -4.4613
LeftHand  12.7489 -26.8601 -50.5256
RightShoulder  0 2.42657e-020 1.07489e-018
RightArm  -11.2165 19.8666 79.3337
RightForeArm  96.5151 79.7861 81.7001
RightHand  0.282725 22.5018 1.79168
LeftUpLeg  -24.0195 -5.17499 11.18
LeftLeg  99.878 -0.981749 9.03064
LeftFoot  -14.9128 -0.294896 -2.25293
LeftToes  7.31773 1.18758e-006 1.19596e-007
417
root  8.78932 27.4466 18.7442 -91.4586 77.7625 -104.931
RightUpLeg  -47.4871 -6.19961 -3.62834
RightLeg  59.0395 7.08795 10.0498
RightFoot  -9.50261 -0.170694 -1.67603
RightToes  -61.149 -0.403013 -0.402717
Spine  10.6272 2.0034 5.26298
Spine1  21.1816 4.06591 6.49464
HEad  20.1486 16.7617 -15.2413
LeftShoulder1  0 -2.42657e-020 -4.95415e-022
LeftArm  -18.71 5.3054 -94.6785
LeftForeArm  -165.165 -26.7163 -4.6533
LeftHand  13.1195 -26.768 -51.9684
RightShoulder  0 2.42657e-020 1.07489e-018
RightArm  -8.61072 26.6261 80.2447
RightForeArm  69.614 75.4176 43.0884
RightHand  -0.652682 23.4141 -2.7797
LeftUpLeg  -36.9468 -6.84262 11.1097
LeftLeg  103.29 -0.945316 5.6063
LeftFoot  -17.7354 -0.250236 -1.6038
LeftToes  7.48291 1.18758e-006 1.19596e-007
418
root  10.9831 28.275 17.7214 -113.404 78.1858 -125.035
RightUpLeg  -37.1515 -8.10973 -7.14909
RightLeg  53.6004 6.19041 7.24686
RightFoot  -10.9079 -0.157792 -1.27507
RightToes  -60.8241 -0.402339 -0.405325
Spine  11.1252 4.92816 4.3439
Spine1  22.3795 10.4101 5.56933
HEad  23.6822 10.4508 -12.2082
LeftShoulder1  0 -2.42657e-020 -4.95415e-022
LeftArm  -17.5187 5.00238 -96.7639
LeftForeArm  -167.825 -27.5092 -4.82885
LeftHand  13.233 -25.7011 -54.2864
RightShoulder  0 2.42657e-020 1.07489e-018
RightArm  -5.2589 32.9538 78.749
RightForeArm  52.746 58.6126 16.8399
RightHand  -2.47443 24.7442 -10.8787
LeftUpLeg  -48.1022 -9.57243 9.81276
LeftLeg  98.8891 -0.177827 2.02558
LeftFoot  -16.4832 -0.0399056 -0.275517
LeftToes  4.93466 1.18758e-006 1.19596e-007
419
root  13.3417 29.0059 16.5649 -137.854 75.0197 -149.206
RightUpLeg  -26.0495 -10.4503 -10.2868
RightLeg  46.1641 4.18174 3.78544
RightFoot  -11.2398 -0.0543025 -0.174302
RightToes  -61.2528 -0.406405 -0.408029
Spine  11.7867 8.33014 3.71212
Spine1  24.4877 19.2899 3.08112
HEad  28.1404 4.43319 -8.8353
LeftShoulder1  0 -2.42657e-020 -4.95415e-022
LeftArm  -14.1441 2.67727 -97.7324
LeftForeArm  -166.726 -27.751 -4.88183
LeftHand  12.9945 -26.1637 -52.6006
RightShoulder  0 2.42657e-020 1.07489e-018
RightArm  -7.34138 39.058 76.4019
RightForeArm  51.2115 34.7903 7.00803
RightHand  -4.29684 27.8195 -16.8608
LeftUpLeg  -57.1743 -11.8946 8.17857
LeftLeg  88.2892 -0.167085 -1.84228
LeftFoot  -15.5669 0.17264 1.26295
LeftToes  3.94486 1.18758e-006 1.19596e-007
420
root  15.8787 29.5533 15.3824 -151.382 69.1588 -162.926
RightUpLeg  -15.408 -10.4152 -11.8707
RightLeg  39.7904 -0.807511 -0.611131
RightFoot  -8.30734 0.076128 1.42591
RightToes  -63.4088 -0.426963 -0.410431
Spine  12.0092 10.3763 3.16247
Spine1  25.1195 25.5178 0.691569
HEad  33.3288 1.11305 -6.46666
LeftShoulder1  0 -2.42657e-020 -4.95415e-022
LeftArm  -12.0503 1.85373 -97.8757
LeftForeArm  -163.284 -28.4467 -5.03591
LeftHand  12.6036 -26.527 -50.5867
RightShoulder  0 2.42657e-020 1.07489e-018
RightArm  -20.219 44.5841 78.6338
RightForeArm  66.4515 14.5764 2.56505
RightHand  -2.81372 27.286 -11.1879
LeftUpLeg  -61.4982 -12.989 4.89296
LeftLeg  72.5926 -1.24059 -3.23123
LeftFoot  -13.0828 0.208612 1.81912
LeftToes  -3.95566 1.18758e-006 1.19596e-007
421
root  18.624 29.9357 14.0741 -157.397 63.5386 -168.049
RightUpLeg  -5.88537 -7.69843 -11.5313
RightLeg  36.4338 -5.44647 -3.50903
RightFoot  -1.07132 0.0120547 1.66795
RightToes  -66.9682 -0.461245 -0.412129
Spine  12.0731 11.1726 2.45973
Spine1  24.972 27.8933 -0.60262
HEad  34.8734 -0.750276 -3.98952
LeftShoulder1  0 -2.42657e-020 -4.95415e-022
LeftArm  -11.9969 0.978237 -97.5372
LeftForeArm  -160.773 -29.0232 -5.16578
LeftHand  12.2105 -25.8451 -50.3686
RightShoulder  0 2.42657e-020 1.07489e-018
RightArm  -33.0124 50.0705 78.1221
RightForeArm  82.2129 -0.180319 -0.122582
RightHand  0.212581 21.8925 1.46954
LeftUpLeg  -59.2388 -11.8963 -0.551975
LeftLeg  54.7691 -2.21556 -2.75048
LeftFoot  -8.9487 0.12429 1.58824
LeftToes  -7.68377 1.18758e-006 1.19596e-007
422
root  21.4717 30.0366 12.5524 -159.874 58.7232 -168.576
RightUpLeg  2.11257 -5.49804 -10.1431
RightLeg  35.7901 -5.41744 -3.40464
RightFoot  7.89622 -0.0241871 0.727936
RightToes  -67.0517 -0.462053 -0.412247
Spine  11.6363 10.9537 1.66187
Spine1  23.6798 26.9913 -1.41327
HEad  34.4259 -0.365262 -0.595404
LeftShoulder1  0 -2.42657e-020 -4.95415e-022
LeftArm  -13.2298 0.758185 -96.1764
LeftForeArm  -161.981 -30.1061 -5.41512
LeftHand  12.546 -25.553 -52.1052
RightShoulder  0 2.42657e-020 1.07489e-018
RightArm  11.2515 44.8267 81.2594
RightForeArm  51.4103 5.99617 1.03777
RightHand  2.47911 11.7121 24.2086
LeftUpLeg  -53.2511 -8.07079 -7.3795
LeftLeg  39.7721 1.98333 1.43987
LeftFoot  -6.15598 0.0345009 0.641588
LeftToes  -7.63089 1.18758e-006 1.19596e-007
423
root  24.2894 29.7386 11.0694 -158.961 54.6024 -166.966
RightUpLeg  5.13577 -5.14892 -8.61366
RightLeg  39.4279 -0.306049 -0.241867
RightFoot  15.3689 -0.151741 1.50204
RightToes  -58.1145 -0.376833 -0.393069
Spine  10.4619 10.0977 1.08083
Spine1  20.8615 24.9127 -2.28363
HEad  35.5999 2.82157 2.13345
LeftShoulder1  0 -2.42657e-020 -4.95415e-022
LeftArm  -15.2101 3.34543 -94.2965
LeftForeArm  -163.979 -36.2601 -6.94916
LeftHand  13.0538 -24.4119 -56.1321
RightShoulder  0 2.42657e-020 1.07489e-018
RightArm  -1.08366 43.765 86.2268
RightForeArm  50.8208 -0.158023 -0.0428496
RightHand  0.812474 6.49964 14.6201
LeftUpLeg  -49.9647 -3.38506 -12.1041
LeftLeg  34.0839 8.09132 4.7168
LeftFoot  -9.21824 -0.069775 -0.865491
LeftToes  1.00565 1.18758e-006 1.19596e-007
424
root  27.0495 29.1137 9.66471 -156.349 51.3525 -163.375
RightUpLeg  4.93939 -3.22189 -5.72226
RightLeg  45.2893 3.79252 3.32867
RightFoot  17.161 -0.400314 3.03003
RightToes  -43.9832 -0.251059 -0.336499
Spine  9.27687 8.79605 0.739721
Spine1  18.0587 22.1176 -2.91068
HEad  36.9939 8.39268 3.83271
LeftShoulder1  0 -2.42657e-020 -4.95415e-022
LeftArm  -18.9453 8.86152 -92.5201
LeftForeArm  -162.699 -47.2304 -10.4294
LeftHand  12.7842 -22.8251 -58.4421
RightShoulder  0 2.42657e-020 1.07489e-018
RightArm  -26.0986 36.3605 90.034
RightForeArm  70.8264 4.60374 0.74866
RightHand  1.40612 16.4117 10.1017
LeftUpLeg  -49.976 -1.26147 -12.1522
LeftLeg  40.7382 7.6314 5.7209
LeftFoot  -8.82779 -0.054837 -0.710417
LeftToes  22.8421 1.18758e-006 1.19596e-007
425
root  29.6478 28.4172 8.02646 -157.962 47.6392 -162.288
RightUpLeg  5.32306 -2.51342 -4.53167
RightLeg  50.1651 2.93121 3.03627
RightFoot  10.6352 -0.163453 2.13337
RightToes  -45.3235 -0.262344 -0.343177
Spine  9.66725 7.52199 0.838095
Spine1  18.3608 19.4594 -3.09373
HEad  37.8361 11.7985 4.71602
LeftShoulder1  0 -2.42657e-020 -4.95415e-022
LeftArm  -18.9467 10.3922 -91.2344
LeftForeArm  -159.845 -55.8936 -14.4309
LeftHand  12.6458 -21.1023 -61.8816
RightShoulder  0 2.42657e-020 1.07489e-018
RightArm  -35.0734 32.3154 90.2848
RightForeArm  63.4684 7.53832 1.28725
RightHand  1.64946 26.9263 7.25385
LeftUpLeg  -50.4556 -2.14143 -11.0273
LeftLeg  54.6167 5.52313 6.75395
LeftFoot  -12.3459 -0.110777 -1.02421
LeftToes  27.234 1.18758e-006 1.19596e-007
426
root  31.9175 28.131 5.95141 -161.691 44.1372 -164.25
RightUpLeg  3.2497 -1.96608 -5.93516
RightLeg  54.699 -0.294417 -0.426565
RightFoot  5.28454 -0.025925 0.939188
RightToes  -41.611 -0.231479 -0.32404
Spine  9.57918 6.85121 0.763049
Spine1  17.9986 17.1089 -2.14851
HEad  38.6553 9.61203 5.87787
LeftShoulder1  0 -2.42657e-020 -4.95415e-022
LeftArm  -16.7803 10.9081 -90.6284
LeftForeArm  -152.839 -61.4385 -18.1328
LeftHand  12.1763 -19.8296 -63.1706
RightShoulder  0 2.42657e-020 1.07489e-018
RightArm  -25.3717 20.7684 84.7406
RightForeArm  36.2137 20.6284 3.79437
RightHand  1.01342 25.0004 4.94008
LeftUpLeg  -44.797 -3.78668 -12.424
LeftLeg  59.3259 4.3553 6.32896
LeftFoot  -19.8352 -0.367488 -2.10158
LeftToes  29.3899 1.18758e-006 1.19596e-007
427
root  33.7035 28.287 3.86818 -163.034 41.3549 -165.549
RightUpLeg  -3.97631 -0.26232 -6.91097
RightLeg  59.5522 -3.87503 -5.77581
RightFoot  1.18559 -0.000714785 0.44637
RightToes  -33.0339 -0.165361 -0.272489
Spine  8.32566 6.16112 0.719054
Spine1  15.7038 14.3978 -0.618
HEad  39.2216 8.80458 5.58001
LeftShoulder1  0 -2.42657e-020 -4.95415e-022
LeftArm  -15.336 15.7476 -90.4696
LeftForeArm  -142.475 -69.558 -27.1751
LeftHand  11.659 -17.9093 -66.2706
RightShoulder  0 2.42657e-020 1.07489e-018
RightArm  -26.6898 9.67796 80.4441
RightForeArm  31.3602 28.8512 5.56813
RightHand  0.108105 23.2194 0.896441
LeftUpLeg  -38.804 -6.50412 -13.3309
LeftLeg  59.3292 4.39008 6.37987
LeftFoot  -24.2779 -0.639137 -2.97082
LeftToes  30.1107 1.18758e-006 1.19596e-007
428
root  35.2405 28.8226 1.79659 -164.228 38.3094 -167.175
RightUpLeg  -12.4162 1.28568 -8.09964
RightLeg  62.0423 -6.13415 -9.92902
RightFoot  -4.38465 0.0316063 1.20334
RightToes  -23.9548 -0.104584 -0.207834
Spine  7.37468 5.07318 0.572125
Spine1  13.9496 11.3146 -0.00134339
HEad  39.3153 10.4168 5.09577
LeftShoulder1  0 -2.42657e-020 -4.95415e-022
LeftArm  -14.9558 21.8875 -90.0584
LeftForeArm  -122.624 -76.9274 -47.3971
LeftHand  10.3103 -14.2584 -72.0031
RightShoulder  0 2.42657e-020 1.07489e-018
RightArm  -29.9353 1.18394 77.9799
RightForeArm  29.336 33.2786 6.64328
RightHand  -0.152471 22.7907 -0.386573
LeftUpLeg  -31.3842 -6.76264 -14.5219
LeftLeg  55.1062 3.46335 4.32253
LeftFoot  -26.2117 -0.551766 -2.36967
LeftToes  31.812 1.18758e-006 1.19596e-007
